<?xml version="1.0" standalone="no"?>
<!DOCTYPE svg PUBLIC "-//W3C//DTD SVG 20010904//EN"
 "http://www.w3.org/TR/2001/REC-SVG-20010904/DTD/svg10.dtd">
<svg version="1.0" xmlns="http://www.w3.org/2000/svg"
 width="460.000000pt" height="460.000000pt" viewBox="0 0 460.000000 460.000000"
 preserveAspectRatio="xMidYMid meet">

<g transform="translate(0.000000,460.000000) scale(0.100000,-0.100000)"
fill="#000000" stroke="none">
<path d="M0 2300 l0 -2300 690 0 c380 0 690 2 690 4 0 2 -39 27 -87 54 -49 27
-117 66 -153 87 -36 21 -83 48 -105 60 -22 12 -121 69 -220 127 -99 58 -214
124 -255 148 -41 23 -88 50 -105 60 -16 9 -55 31 -85 48 -30 18 -66 40 -79 51
l-24 18 -1 1639 -1 1639 23 22 c13 12 40 30 60 41 20 10 64 34 97 54 51 29
264 152 330 190 62 36 147 85 280 162 156 92 206 121 290 168 l50 28 -697 0
-698 0 0 -2300z"/>
<path d="M1319 4533 c-63 -36 -154 -90 -204 -118 -49 -29 -106 -62 -125 -73
-19 -11 -64 -36 -100 -57 -36 -21 -85 -49 -110 -63 -25 -14 -78 -45 -118 -69
-41 -24 -75 -43 -77 -43 -2 0 -44 -25 -93 -55 -50 -30 -93 -55 -97 -55 -3 0
-28 -15 -56 -32 l-49 -33 0 -1636 0 -1637 48 -31 c27 -17 51 -31 54 -31 3 0
37 -19 74 -42 76 -46 154 -91 439 -253 105 -59 201 -115 215 -124 140 -88 318
-181 340 -179 24 4 24 4 -10 20 -87 41 -266 156 -280 180 -13 24 -12 32 2 78
17 51 17 52 -3 34 -30 -27 -22 -2 16 52 19 27 31 50 25 52 -5 2 -30 -6 -56
-17 -38 -17 -45 -18 -40 -5 3 9 6 20 6 26 0 6 32 43 72 84 70 72 77 85 36 63
-42 -22 -28 0 17 26 57 34 113 35 213 6 76 -23 111 -22 164 5 40 21 71 78 64
117 -7 40 -60 105 -95 119 -26 10 -26 10 24 35 68 34 121 87 155 153 38 76 45
129 26 220 -20 95 -20 93 7 76 18 -12 106 -32 315 -72 18 -4 22 -11 22 -43 l0
-38 -82 13 c-46 7 -99 16 -118 20 -28 5 -33 4 -23 -6 14 -15 123 -39 181 -40
l42 0 0 -244 0 -243 -38 10 c-76 20 -95 -14 -38 -67 59 -54 61 -70 22 -221
-19 -73 -40 -181 -47 -239 -13 -121 -2 -112 -129 -95 -41 5 -138 16 -215 24
-77 7 -149 17 -160 20 -19 7 -19 7 1 -8 20 -16 298 -57 381 -57 61 0 103 -11
103 -26 0 -8 4 -14 9 -14 6 0 13 21 16 48 18 142 28 182 51 213 13 18 21 35
18 38 -3 3 -10 -2 -15 -12 -6 -9 -15 -17 -20 -17 -6 0 -7 5 -3 12 4 6 13 36
20 67 7 31 20 83 29 116 21 81 13 115 -36 160 -23 20 -39 39 -36 41 2 3 37 -1
76 -7 54 -9 75 -9 83 -1 9 9 7 12 -7 12 -12 0 -2 11 28 31 51 33 129 115 160
167 10 17 23 32 29 32 5 0 6 -4 3 -10 -3 -5 -1 -10 4 -10 6 0 11 10 11 23 0
30 28 73 86 133 49 50 170 144 186 144 5 0 20 8 34 17 14 9 38 17 52 18 18 0
38 16 66 49 23 27 57 67 77 90 l37 40 38 -16 c22 -9 55 -19 75 -23 21 -3 42
-12 49 -20 10 -12 1 -19 -53 -45 -77 -36 -96 -67 -77 -123 11 -35 57 -67 93
-67 27 0 28 -17 1 -35 -22 -14 -25 -22 -22 -58 3 -23 7 -49 11 -57 4 -10 -8
-25 -36 -45 -28 -21 -47 -44 -56 -71 -13 -38 -13 -44 5 -75 25 -42 75 -68 133
-69 25 0 59 -5 77 -12 29 -10 32 -16 37 -62 3 -29 14 -70 25 -91 32 -61 33
-105 3 -105 -27 0 -56 41 -76 103 -20 64 -71 113 -125 122 -41 7 -120 -10
-120 -26 0 -5 -11 -26 -25 -47 -55 -84 -85 -242 -85 -455 0 -77 -2 -88 -17
-85 -28 5 -33 56 -22 240 7 97 9 192 5 212 -7 36 -37 66 -66 66 -8 0 -47 -34
-86 -75 l-70 -76 -37 16 c-45 18 -42 18 -61 -1 -9 -9 -16 -32 -16 -54 0 -76
-19 -87 -74 -45 -40 30 -45 31 -89 5 -26 -16 -45 -41 -75 -103 -59 -121 -71
-149 -81 -185 l-10 -32 40 0 c22 0 51 7 64 16 23 15 25 15 25 0 0 -9 5 -16 10
-16 6 0 10 9 10 20 0 13 9 22 28 26 15 3 35 8 45 11 13 3 17 -2 17 -26 0 -17
5 -31 10 -31 6 0 10 16 10 35 0 30 3 35 24 35 13 0 39 3 57 8 30 6 27 8 -31
12 l-65 5 43 19 c23 10 42 25 42 33 0 8 15 29 33 45 38 36 159 119 165 113 3
-3 -20 -48 -94 -185 -18 -33 -18 -44 5 -64 20 -19 41 -14 58 13 22 36 83 225
77 243 -4 12 4 23 28 38 34 21 53 26 44 12 -3 -5 -6 -78 -7 -163 -3 -168 4
-199 45 -199 31 0 33 12 41 180 9 205 12 219 43 232 38 15 252 40 281 33 14
-4 35 -18 48 -31 27 -29 39 -28 66 8 19 25 19 26 -8 93 -15 37 -29 84 -32 105
l-5 38 43 7 c24 4 63 16 87 26 65 28 78 23 47 -17 -11 -13 -13 -14 -9 -3 5 15
0 15 -35 6 -22 -6 -38 -14 -35 -19 3 -4 -10 -8 -28 -8 -49 0 -65 -13 -51 -42
6 -13 17 -40 25 -60 13 -36 14 -37 43 -23 45 20 197 65 220 65 34 1 103 37
109 58 9 26 35 36 43 16 9 -23 -40 -60 -101 -78 -28 -8 -89 -24 -136 -35 -89
-21 -178 -55 -163 -64 4 -2 65 9 136 25 l127 29 85 -77 c47 -42 85 -79 85 -80
0 -2 -30 -20 -67 -40 -38 -20 -85 -47 -105 -60 -21 -13 -43 -24 -49 -24 -7 0
-38 25 -70 55 -63 61 -95 70 -105 30 -5 -19 1 -34 22 -61 16 -20 35 -46 41
-58 16 -27 13 -29 -174 -137 -79 -45 -143 -83 -143 -85 0 -2 10 -4 23 -4 12 0
76 32 142 71 156 92 198 114 193 98 -2 -7 -62 -45 -132 -85 -70 -40 -131 -75
-134 -78 -3 -3 310 -6 696 -6 l702 0 0 2300 0 2300 -707 0 -708 0 55 -31 c30
-17 73 -41 95 -53 22 -13 112 -65 200 -116 88 -52 176 -103 196 -114 108 -61
159 -91 314 -181 94 -54 186 -107 205 -117 19 -11 41 -25 48 -32 10 -9 12
-346 12 -1656 0 -1551 -1 -1645 -18 -1661 -14 -14 -174 -108 -347 -204 -111
-62 -313 -179 -337 -196 -30 -21 -48 -24 -48 -9 0 5 21 21 48 35 26 14 92 52
147 84 137 80 291 168 345 199 25 14 77 44 115 67 l70 41 3 1637 c2 1623 2
1636 -18 1655 -11 10 -41 30 -67 43 -27 14 -120 68 -208 119 -88 51 -178 103
-200 115 -22 12 -65 37 -95 55 -30 18 -113 66 -185 107 -71 40 -137 78 -145
83 -19 12 -98 57 -170 98 l-55 32 -856 0 -855 0 -115 -67z m1471 36 c0 -5 -4
-9 -10 -9 -5 0 -10 7 -10 16 0 8 5 12 10 9 6 -3 10 -10 10 -16z m-370 -29 c0
-5 -2 -10 -4 -10 -3 0 -8 5 -11 10 -3 6 -1 10 4 10 6 0 11 -4 11 -10z m41 -29
c136 -11 223 -38 374 -115 143 -74 214 -125 325 -235 113 -111 156 -173 240
-340 49 -96 66 -121 82 -121 17 0 18 -2 8 -15 -10 -13 -6 -29 23 -93 20 -43
39 -90 42 -105 9 -34 21 -43 86 -66 283 -102 344 -162 344 -341 0 -47 -6 -297
-14 -556 -10 -343 -10 -477 -2 -492 6 -11 40 -36 76 -56 109 -62 225 -194 225
-258 0 -33 0 -33 -39 27 -62 97 -118 153 -203 202 -101 58 -112 80 -104 197
14 196 27 996 16 1035 -22 82 -99 136 -298 207 -53 19 -96 35 -97 36 -1 2 -10
27 -20 56 -26 81 -196 417 -254 503 -133 196 -329 346 -588 448 -143 56 -364
71 -567 37 -155 -25 -325 -92 -450 -176 -117 -79 -311 -288 -418 -451 -71
-108 -102 -170 -143 -287 -19 -52 -39 -98 -45 -102 -7 -4 -51 -10 -98 -13 -96
-6 -201 -35 -253 -70 -57 -38 -79 -140 -79 -367 0 -80 -5 -219 -11 -310 -6
-91 -11 -297 -12 -459 l-3 -293 -91 -23 c-91 -23 -144 -45 -175 -72 -22 -19
-31 -1 -12 25 21 31 61 49 155 72 45 11 86 25 91 32 4 7 5 70 2 139 -4 70 -1
236 5 370 7 134 16 366 20 516 8 266 9 274 35 326 14 30 34 61 43 70 30 26
172 68 273 79 52 6 98 16 102 21 3 6 9 27 13 46 8 47 102 240 156 322 65 98
219 278 303 354 134 120 258 190 443 250 163 52 274 63 494 46z m23 -61 c287
-33 598 -230 767 -486 55 -83 90 -144 83 -144 -3 0 -26 17 -52 39 -85 70 -145
107 -287 173 -312 148 -656 219 -905 189 -150 -19 -287 -60 -435 -131 -22 -11
-60 -29 -85 -40 -86 -39 -225 -137 -267 -189 -7 -8 -13 -10 -13 -5 0 19 141
187 233 278 110 108 170 152 291 211 204 99 423 133 670 105z m-1314 -214 c0
-3 -4 -8 -10 -11 -5 -3 -10 -1 -10 4 0 6 5 11 10 11 6 0 10 -2 10 -4z m1380
-125 c153 -24 414 -129 580 -236 78 -50 189 -142 247 -205 45 -49 113 -168
136 -240 49 -149 48 -472 -2 -488 -11 -4 -13 4 -7 39 4 24 9 98 13 164 5 111
4 126 -20 197 -35 102 -86 181 -184 283 -24 25 -43 47 -43 50 0 12 17 3 46
-25 18 -16 35 -26 39 -22 5 4 5 1 1 -6 -5 -8 2 -22 18 -37 14 -13 26 -21 27
-17 0 4 4 -3 9 -15 5 -13 17 -23 25 -23 12 0 15 -6 10 -19 -3 -11 1 -25 10
-34 8 -9 15 -20 15 -25 0 -6 7 -13 16 -16 12 -4 9 4 -10 28 -14 19 -24 41 -21
48 3 8 -4 24 -15 36 -11 12 -17 22 -13 22 4 0 0 5 -9 11 -10 5 -18 17 -18 25
0 8 -5 12 -10 9 -6 -4 -10 -3 -9 2 3 18 -1 36 -7 30 -4 -4 -21 14 -39 39 -18
25 -35 42 -37 37 -3 -4 -3 -2 -1 6 2 8 -2 11 -12 7 -9 -3 -14 -2 -11 2 2 4
-12 18 -31 32 -19 14 -47 35 -63 48 -34 27 -35 27 -38 -1 -1 -14 7 -28 20 -36
18 -11 20 -11 15 4 -4 9 -3 14 3 10 6 -4 9 -12 8 -18 -2 -7 1 -13 5 -14 13 -3
47 -45 47 -57 0 -8 3 -7 8 0 5 9 10 8 19 -2 9 -9 9 -15 2 -20 -6 -3 -31 12
-57 35 -26 22 -92 70 -147 105 -226 146 -502 219 -830 220 -141 0 -184 -4
-255 -21 -47 -12 -101 -25 -120 -29 -98 -19 -357 -145 -445 -217 -147 -119
-252 -274 -319 -470 -22 -65 -28 -103 -33 -219 -5 -106 -9 -135 -17 -121 -18
31 -13 267 7 358 22 98 89 239 153 324 73 97 221 218 364 298 115 64 357 147
490 169 94 15 377 12 490 -5z m265 -32 c22 -10 29 -16 15 -13 -38 10 -87 32
-70 32 8 0 33 -8 55 -19z m112 -41 c30 -13 80 -48 69 -48 -10 0 -106 50 -106
55 0 7 6 6 37 -7z m-1837 -12 c0 -3 -4 -8 -10 -11 -5 -3 -10 -1 -10 4 0 6 5
11 10 11 6 0 10 -2 10 -4z m-50 -46 c0 -5 -5 -10 -11 -10 -5 0 -7 5 -4 10 3 6
8 10 11 10 2 0 4 -4 4 -10z m2055 -32 c17 -10 26 -18 22 -18 -11 0 -107 49
-107 55 0 6 46 -14 85 -37z m395 22 c0 -5 -4 -10 -10 -10 -5 0 -10 5 -10 10 0
6 5 10 10 10 6 0 10 -4 10 -10z m-224 -138 c41 -34 74 -66 74 -69 0 -4 -12 5
-27 19 -16 14 -63 51 -105 83 -43 31 -78 59 -78 62 0 10 68 -37 136 -95z
m-506 72 c8 -3 47 -11 86 -19 88 -17 184 -64 289 -143 103 -77 170 -149 202
-218 22 -49 26 -76 35 -237 10 -194 4 -437 -13 -526 -6 -29 -25 -83 -42 -120
-43 -91 -43 -91 -2 -46 25 28 43 62 58 112 19 67 23 73 48 73 47 0 52 -18 47
-157 -4 -107 -8 -128 -23 -140 -11 -7 -28 -13 -38 -13 -16 0 -19 5 -13 31 3
17 6 70 6 118 1 78 2 84 15 67 16 -21 19 -18 9 8 -3 9 -10 16 -15 16 -19 0
-29 -46 -39 -181 -6 -78 -17 -157 -25 -174 -7 -18 -31 -47 -54 -65 -23 -18
-39 -35 -37 -37 2 -2 22 3 44 12 49 20 70 50 79 110 l6 44 29 -21 c53 -37 68
-74 68 -165 0 -75 -2 -84 -23 -98 -41 -26 -146 -65 -271 -100 -96 -27 -113
-34 -81 -34 52 -1 234 51 310 88 33 17 61 28 63 26 2 -2 1 -27 -3 -56 -6 -40
-14 -59 -36 -78 -45 -39 -211 -98 -370 -131 -176 -36 -238 -38 -264 -10 -10
12 -34 30 -53 42 -33 20 -46 21 -211 19 -97 -1 -283 -6 -413 -11 -251 -9 -269
-13 -317 -64 -24 -26 -27 -26 -152 -25 l-128 1 -10 29 c-29 84 -80 119 -135
93 -33 -16 -34 -16 -85 19 -50 35 -147 77 -176 77 -11 0 -15 13 -15 52 0 48 1
50 18 36 46 -41 250 -109 323 -107 30 0 27 2 -26 20 -33 10 -80 24 -105 30
-56 13 -185 72 -196 90 -11 18 -6 177 7 210 9 24 65 66 75 56 3 -2 10 -26 17
-53 10 -39 20 -54 54 -78 24 -16 45 -27 48 -24 3 2 -13 23 -35 46 -47 51 -56
80 -70 241 -6 69 -13 127 -15 130 -3 2 -5 -44 -5 -102 0 -59 -2 -107 -5 -107
-17 0 -64 32 -70 47 -4 10 -9 70 -12 134 -6 110 -5 117 16 138 40 40 61 25 86
-61 22 -77 55 -135 100 -178 33 -31 42 -20 12 16 -45 54 -80 125 -93 189 -26
122 -35 320 -25 500 16 268 20 279 119 368 100 91 291 178 492 227 195 47 257
50 103 5 -151 -43 -274 -87 -327 -117 -64 -35 -41 -36 66 -2 126 40 269 73
366 84 140 16 455 12 537 -6 123 -28 121 -28 109 -15 -6 6 -33 21 -60 32 l-49
20 132 -4 133 -4 -38 23 c-20 13 -52 28 -69 34 -65 23 -30 35 37 14z m690 -3
c0 -6 -4 -13 -10 -16 -5 -3 -10 1 -10 9 0 9 5 16 10 16 6 0 10 -4 10 -9z
m-2120 -76 c-24 -25 -46 -45 -49 -45 -3 0 15 20 39 45 24 25 46 45 49 45 3 0
-15 -20 -39 -45z m-200 14 c0 -6 -4 -7 -10 -4 -5 3 -10 11 -10 16 0 6 5 7 10
4 6 -3 10 -11 10 -16z m-50 -98 c0 -5 3 -18 6 -28 5 -16 4 -16 -10 1 -18 23
-20 36 -6 36 6 0 10 -4 10 -9z m-290 -61 c0 -5 -2 -10 -4 -10 -3 0 -8 5 -11
10 -3 6 -1 10 4 10 6 0 11 -4 11 -10z m2780 -40 c0 -5 -4 -10 -10 -10 -5 0
-10 5 -10 10 0 6 5 10 10 10 6 0 10 -4 10 -10z m-2680 -20 c0 -5 -4 -10 -10
-10 -5 0 -10 5 -10 10 0 6 5 10 10 10 6 0 10 -4 10 -10z m110 -30 c0 -5 -5
-10 -11 -10 -5 0 -7 5 -4 10 3 6 8 10 11 10 2 0 4 -4 4 -10z m2677 -32 c-3 -8
-6 -5 -6 6 -1 11 2 17 5 13 3 -3 4 -12 1 -19z m-3227 -98 c0 -5 -5 -10 -11
-10 -5 0 -7 5 -4 10 3 6 8 10 11 10 2 0 4 -4 4 -10z m3190 -10 c0 -5 -4 -10
-10 -10 -5 0 -10 5 -10 10 0 6 5 10 10 10 6 0 10 -4 10 -10z m-2780 -239 c39
-18 65 -74 54 -117 -7 -26 -82 -67 -144 -79 -28 -5 -21 1 35 30 89 46 96 55
80 102 -11 32 -20 39 -63 54 -28 10 -53 15 -56 12 -3 -3 -13 -2 -23 2 -17 7
-17 8 2 15 25 10 70 3 115 -19z m309 5 c8 -9 11 -51 9 -122 l-3 -109 -32 -3
c-46 -5 -56 21 -51 132 2 50 7 97 11 104 11 16 52 15 66 -2z m2294 4 c15 0 17
-12 17 -107 0 -60 -4 -114 -9 -121 -4 -8 -19 -12 -32 -10 -21 3 -24 9 -26 53
-2 28 -5 83 -9 124 -6 74 -6 74 18 68 12 -4 31 -7 41 -7z m429 -33 c22 -34 29
-106 28 -295 0 -202 -6 -240 -32 -214 -8 8 -8 15 0 24 11 15 21 238 10 238 -4
0 -5 7 -1 16 5 15 3 14 -21 -1 -15 -10 -28 -16 -31 -14 -2 3 9 13 24 23 28 19
30 29 31 124 0 27 -40 102 -55 102 -17 0 -35 -22 -35 -44 0 -17 -2 -18 -9 -7
-7 10 -3 24 11 44 17 23 25 27 47 22 14 -4 29 -12 33 -18z m-3184 -57 c-12
-19 -28 -27 -28 -14 0 6 30 33 38 34 1 0 -3 -9 -10 -20z m19 -22 c-3 -8 -6 -5
-6 6 -1 11 2 17 5 13 3 -3 4 -12 1 -19z m-42 -47 c3 -5 1 -12 -5 -16 -5 -3
-10 1 -10 9 0 18 6 21 15 7z m-5 -41 c0 -5 -2 -10 -4 -10 -3 0 -8 5 -11 10 -3
6 -1 10 4 10 6 0 11 -4 11 -10z m-4 -95 c-5 -35 7 -171 19 -200 8 -19 7 -19
-11 -2 -17 15 -19 35 -21 150 -2 99 0 126 8 107 6 -14 8 -38 5 -55z m160 43
c21 0 21 -1 5 -29 -17 -30 -35 -40 -24 -14 3 9 2 15 -3 14 -21 -4 -28 2 -14
11 13 8 13 10 -2 10 -9 0 -20 -4 -23 -10 -3 -5 -11 -10 -17 -10 -6 0 -5 7 3
17 9 11 10 14 2 9 -7 -4 -21 -2 -30 4 -14 9 -7 10 32 5 28 -4 60 -7 71 -7z
m50 -173 l0 -134 -55 -12 c-31 -6 -59 -16 -62 -21 -4 -7 -9 -6 -13 1 -4 6 -2
11 4 11 7 0 9 7 6 16 -5 13 -3 14 7 6 8 -7 18 -7 27 -2 8 6 25 10 38 10 23 0
23 1 21 114 -2 95 -5 113 -17 109 -10 -4 -9 0 4 15 34 40 39 27 40 -113z
m2925 74 c-9 -22 -10 -22 -10 -3 -1 11 2 24 6 27 12 12 14 0 4 -24z m-3281
-179 c0 -5 -4 -10 -10 -10 -5 0 -10 5 -10 10 0 6 5 10 10 10 6 0 10 -4 10 -10z
m3321 -13 c-10 -9 -11 -8 -5 6 3 10 9 15 12 12 3 -3 0 -11 -7 -18z m-3101 -7
c0 -5 -2 -10 -4 -10 -3 0 -8 5 -11 10 -3 6 -1 10 4 10 6 0 11 -4 11 -10z
m3160 -49 c2 -111 -2 -334 -6 -346 -4 -9 -16 -2 -41 26 -19 21 -33 44 -30 51
4 9 6 9 7 -2 1 -20 50 -56 51 -38 6 89 3 308 -4 308 -6 0 -7 3 -4 7 4 3 2 12
-4 19 -8 9 -5 11 10 7 14 -4 21 -14 21 -32z m-3161 -33 c-6 -12 -15 -33 -20
-47 -6 -22 -7 -22 -8 -5 -1 24 20 74 32 74 4 0 2 -10 -4 -22z m119 15 c24 -6
24 -6 20 -152 -3 -132 -5 -150 -26 -181 l-23 -35 7 30 c4 17 10 39 14 50 4 11
6 35 5 53 -1 17 -2 71 -3 120 -2 84 -3 88 -29 104 -24 15 -25 17 -8 18 11 0
31 -3 43 -7z m2949 -140 c-3 -10 -5 -4 -5 12 0 17 2 24 5 18 2 -7 2 -21 0 -30z
m-2680 -4 c18 -12 40 -18 48 -15 8 3 17 1 20 -3 3 -5 -14 -15 -37 -23 -68 -21
-79 -50 -85 -232 l-6 -155 -56 -7 c-31 -4 -78 -15 -106 -26 -59 -23 -165 -87
-165 -100 0 -5 -9 -21 -19 -36 -11 -15 -25 -54 -32 -87 -10 -51 -9 -73 5 -143
16 -79 78 -226 111 -262 8 -9 15 -21 15 -27 0 -19 -77 -36 -137 -29 -48 5 -63
3 -88 -14 -43 -29 -46 -25 -19 23 30 54 53 192 36 209 -9 9 -12 8 -12 -6 0
-10 -17 -68 -37 -129 -33 -98 -41 -112 -73 -132 -20 -13 -43 -33 -52 -46 -16
-23 -17 -22 -11 29 3 28 2 52 -3 52 -5 0 -26 -30 -46 -68 -20 -37 -44 -76 -52
-87 -14 -19 -15 -16 -16 41 0 33 11 116 24 185 14 68 28 150 31 181 5 37 17
74 36 102 19 30 24 46 16 50 -7 3 2 17 23 35 30 26 32 29 11 24 -18 -4 -22 -2
-19 8 6 19 47 39 81 39 24 0 31 7 52 55 29 64 60 78 44 19 -6 -19 -9 -45 -6
-57 3 -20 4 -20 16 8 7 17 18 51 24 77 11 45 13 47 51 50 51 4 55 20 11 41
l-36 17 23 42 c24 43 159 148 143 112 -4 -11 -10 -35 -12 -54 l-4 -35 15 26
c9 15 26 65 40 111 13 47 38 114 54 149 28 62 31 65 88 86 74 27 70 27 111 2z
m2352 -53 c37 -24 84 -53 107 -65 22 -12 54 -35 70 -52 29 -30 29 -32 34 -174
3 -80 10 -149 15 -154 7 -7 9 36 7 119 -3 142 1 151 47 101 26 -28 59 -140 46
-160 -3 -5 0 -11 6 -13 11 -4 59 -220 59 -266 0 -14 4 -21 11 -16 16 10 3 112
-27 202 -13 41 -24 86 -24 99 0 20 4 23 23 18 39 -12 74 -58 81 -111 10 -71
55 -224 73 -248 14 -20 15 -20 10 -1 -20 78 -14 135 13 135 13 0 46 -79 66
-160 15 -63 23 -75 46 -71 4 0 10 -9 13 -20 6 -18 13 -20 42 -16 56 9 64 -25
62 -244 -2 -176 -10 -218 -24 -119 -4 31 -16 62 -31 79 -13 16 -28 39 -33 52
-9 23 -10 23 -10 -7 -1 -23 6 -36 24 -48 21 -14 25 -24 25 -63 l0 -46 -25 23
c-13 13 -28 33 -31 44 -21 69 -88 226 -96 226 -6 0 -7 -22 -3 -60 4 -38 3 -60
-3 -60 -5 0 -12 7 -16 15 -9 26 -36 18 -36 -11 0 -25 -2 -25 -42 -19 -55 9
-104 32 -126 59 -9 12 -28 29 -40 38 -13 9 -56 46 -95 81 -40 36 -87 78 -104
94 l-33 28 35 70 c19 39 38 86 41 105 9 49 -7 29 -41 -52 -16 -36 -36 -77 -46
-89 -17 -22 -17 -22 -63 -5 -46 17 -56 29 -36 41 6 4 26 37 45 75 45 89 54
170 30 260 -10 38 -19 111 -21 177 -2 75 -8 121 -18 141 -16 31 -80 92 -96 92
-6 0 -10 5 -10 10 0 21 36 8 99 -34z m-2639 -99 c0 -2 -10 -12 -21 -23 -22
-19 -22 -19 -8 4 12 19 29 30 29 19z m-123 -29 c-3 -8 -6 -5 -6 6 -1 11 2 17
5 13 3 -3 4 -12 1 -19z m-90 -30 c-3 -8 -6 -5 -6 6 -1 11 2 17 5 13 3 -3 4
-12 1 -19z m23 -246 c0 -4 12 -9 27 -10 14 -1 29 -5 32 -8 3 -3 -12 -4 -33 -2
-22 2 -41 9 -44 16 -2 6 1 12 7 12 6 0 11 -4 11 -8z m497 -16 c39 -11 137 -60
181 -91 2 -2 -8 -20 -23 -40 -14 -21 -25 -42 -25 -47 0 -19 -52 -118 -60 -113
-4 3 -7 -3 -6 -13 1 -12 -5 -16 -19 -14 -27 5 -27 6 -19 37 5 22 11 26 33 21
14 -3 20 -3 13 0 -10 5 -9 9 5 20 17 12 16 13 -9 14 -18 0 -28 5 -28 15 0 8 5
15 10 15 6 0 10 -4 10 -10 0 -5 10 -10 22 -10 21 0 21 0 2 15 -18 14 -18 14 2
9 25 -7 34 4 39 47 3 17 9 37 15 44 8 10 8 15 -1 21 -8 4 -9 3 -5 -4 4 -7 3
-12 -3 -12 -5 0 -13 5 -16 10 -3 6 0 10 7 10 7 0 -16 15 -52 33 -58 29 -74 32
-151 32 -69 0 -91 -4 -106 -18 -22 -19 -49 -22 -59 -6 -9 14 16 30 39 25 9 -2
17 0 17 4 0 20 119 24 187 6z m-36 -30 c-16 -19 2 -30 35 -22 18 5 24 3 18 -5
-4 -7 -2 -10 7 -7 8 3 13 10 12 16 -2 6 11 3 27 -6 32 -18 34 -30 1 -13 -12 7
-22 7 -26 2 -3 -5 4 -12 15 -16 11 -3 20 -14 20 -23 -1 -21 -25 -54 -33 -45
-4 3 -7 0 -7 -7 0 -9 -5 -8 -19 4 -10 9 -29 18 -42 18 -24 1 -69 34 -69 49 0
5 12 -3 26 -16 14 -13 29 -24 33 -23 3 1 21 -2 40 -6 25 -6 37 -4 49 8 15 14
14 17 -3 31 -11 8 -37 18 -58 21 -20 4 -40 11 -43 16 -5 8 13 38 23 38 3 0 0
-6 -6 -14z m34 -6 c-3 -5 -12 -10 -18 -10 -7 0 -6 4 3 10 19 12 23 12 15 0z
m-170 -47 c-3 -26 -7 -55 -9 -63 -3 -8 -10 -34 -16 -57 -7 -29 -15 -40 -24
-37 -7 3 -16 -2 -20 -11 -4 -11 -2 -14 7 -9 9 6 9 5 0 -8 -11 -12 -9 -17 10
-25 13 -6 24 -17 25 -25 0 -7 4 -23 7 -35 4 -13 3 -23 -3 -23 -5 0 -12 13 -15
30 -5 20 -19 37 -47 55 -40 25 -52 45 -27 45 7 0 21 6 31 13 17 13 17 15 2 45
-20 38 -20 52 -2 52 8 0 19 -20 26 -47 l13 -48 11 75 c6 41 15 81 19 88 5 6 5
17 2 22 -3 6 -1 10 5 10 7 0 9 -16 5 -47z m-87 1 c27 -19 28 -34 3 -34 -10 0
-24 -7 -31 -15 -10 -12 -9 -20 4 -40 22 -34 20 -42 -14 -54 -42 -14 -38 -39
15 -91 47 -46 47 -70 1 -70 -44 0 -64 -53 -25 -65 12 -4 18 -13 15 -20 -3 -8
2 -19 10 -26 11 -9 22 -8 54 6 l39 17 35 -34 c20 -19 36 -38 36 -42 0 -4 -16
-27 -35 -50 -39 -48 -43 -70 -18 -98 18 -20 73 -24 105 -7 31 17 33 3 4 -32
-41 -48 -32 -63 42 -70 35 -3 67 -10 72 -15 5 -5 11 -25 15 -45 5 -26 2 -39
-9 -48 -9 -8 -16 -17 -16 -22 0 -13 85 -99 98 -99 10 0 48 42 68 76 9 16 14
17 26 6 12 -10 21 -10 41 -1 36 16 53 7 67 -38 25 -75 46 -81 102 -26 42 41
66 36 54 -11 -21 -86 -273 -98 -412 -21 -77 43 -172 141 -299 310 -8 10 -15
25 -15 31 0 7 -9 15 -19 19 -11 3 -24 19 -30 36 -6 17 -14 28 -19 25 -13 -8
-65 78 -102 169 -27 64 -34 98 -38 173 l-4 93 37 55 c21 30 45 59 54 64 24 14
64 12 89 -6z m250 -10 c21 -9 31 -18 24 -21 -16 -6 -72 16 -72 28 0 12 5 11
48 -7z m308 3 c1 -1 11 -21 23 -44 24 -48 28 -132 9 -196 l-12 -39 -60 5 c-56
5 -59 4 -36 -8 14 -8 35 -14 48 -15 27 0 29 -16 3 -29 -13 -7 -32 -5 -71 10
-69 26 -76 18 -8 -10 58 -24 56 -42 -6 -44 -45 -1 -47 -14 -3 -22 l33 -6 -26
-55 -25 -54 -42 48 c-22 26 -54 70 -69 98 l-28 51 51 57 c28 32 55 75 62 98
16 54 68 145 89 158 13 8 62 5 68 -3z m1309 -57 c15 -12 15 -14 0 -23 -26 -14
-945 -23 -945 -9 0 7 1 12 3 13 1 0 137 3 302 5 221 3 302 8 308 17 13 18 310
15 332 -3z m-1695 -47 c-25 -8 -53 -22 -63 -31 -14 -12 -20 -13 -30 -3 -9 10
-8 11 7 5 13 -5 17 -4 13 3 -4 6 3 14 16 18 12 5 31 11 42 15 11 5 29 8 40 9
11 0 0 -7 -25 -16z m105 -19 c-52 -124 -6 -278 115 -388 32 -29 131 -76 160
-76 6 0 10 -5 10 -11 0 -16 -82 -3 -95 15 -11 14 -16 16 -42 16 -15 0 -16 2
-3 10 13 8 13 10 -1 10 -18 0 -90 54 -90 67 0 4 -14 22 -31 40 -16 17 -28 36
-24 41 3 5 -1 12 -8 15 -11 4 -14 -2 -14 -24 2 -47 -10 -45 -17 3 -10 75 -12
162 -3 181 5 9 5 17 1 17 -4 0 -8 11 -8 25 0 14 4 25 9 25 4 0 6 7 3 14 -4 10
-1 13 8 10 9 -4 16 3 21 20 3 14 10 26 15 26 5 0 3 -16 -6 -36z m-100 -14
c-21 -10 -43 -16 -49 -13 -11 7 42 31 69 31 13 0 6 -6 -20 -18z m21 -25 c-8
-8 -25 -15 -38 -15 -21 1 -20 2 7 15 40 18 50 18 31 0z m458 -95 c-10 -4 -4
-11 19 -23 34 -18 106 -126 148 -222 45 -102 61 -227 39 -306 -9 -33 -15 -37
-51 -43 -49 -8 -119 -47 -137 -76 -24 -39 -42 -25 -42 33 0 29 -5 58 -12 65
-17 17 -49 15 -76 -4 -32 -22 -41 -9 -12 16 29 25 72 26 95 0 10 -11 27 -22
38 -26 15 -5 17 -8 6 -15 -8 -5 -16 -3 -21 4 -5 8 -8 6 -8 -7 0 -10 8 -25 18
-33 9 -8 11 -11 3 -7 -10 5 -12 3 -7 -5 6 -9 13 -8 26 6 9 10 15 22 12 27 -3
5 0 6 7 2 7 -5 18 -1 25 9 7 10 24 18 39 18 15 0 32 5 38 13 6 7 16 11 22 8
12 -4 41 71 33 85 -3 4 -6 29 -7 57 -3 60 -8 76 -22 67 -6 -3 -7 -1 -3 6 10
16 -2 64 -13 56 -5 -3 -7 4 -4 15 3 11 1 20 -5 20 -8 0 -13 11 -27 63 -2 4 -3
11 -4 16 0 5 -13 23 -27 40 -14 17 -27 38 -28 48 -2 9 -13 18 -26 20 -29 4
-40 13 -17 13 33 0 16 18 -23 25 -39 7 -50 18 -30 30 6 4 8 11 4 16 -3 6 -3
18 1 27 5 15 9 14 25 -8 16 -21 17 -26 4 -30z m-346 -2 c-6 -18 -28 -21 -28
-4 0 9 7 16 16 16 9 0 14 -5 12 -12z m2273 -29 c22 -23 43 -38 46 -35 3 3 0
12 -7 21 -36 43 54 -16 145 -95 95 -83 87 -86 -50 -18 -111 54 -179 57 -250
10 l-50 -33 -18 42 c-18 44 -34 50 -18 6 5 -14 9 -38 9 -55 -1 -26 -6 -31 -53
-46 -108 -34 -237 -13 -256 41 -7 20 -3 26 29 42 20 10 64 26 96 36 33 9 100
37 150 62 150 75 173 77 227 22z m-2535 -25 c-3 -9 -2 -12 5 -9 5 4 22 -1 37
-11 15 -10 29 -18 32 -17 9 3 9 -36 0 -42 -4 -3 -15 6 -24 20 -15 22 -23 25
-81 25 -51 0 -65 3 -65 15 0 10 10 15 28 16 15 0 36 4 47 9 28 12 28 12 21 -6z
m589 0 c19 -15 19 -15 -7 -10 -27 4 -27 4 -12 -19 17 -26 26 -87 12 -79 -4 3
-8 12 -8 21 0 8 -9 28 -21 44 -17 24 -18 33 -9 44 15 18 20 18 45 -1z m-425 2
c0 -3 -4 -8 -10 -11 -5 -3 -10 -1 -10 4 0 6 5 11 10 11 6 0 10 -2 10 -4z m-10
-171 c13 -16 12 -17 -5 -13 -21 4 -50 -22 -61 -54 -3 -11 -12 -17 -19 -14 -9
3 -12 0 -8 -10 7 -19 61 -16 87 5 17 15 22 12 77 -48 32 -35 59 -68 59 -73 0
-5 5 -6 12 -2 7 4 8 3 4 -5 -12 -18 16 -71 38 -71 13 0 16 5 11 18 -5 14 -4
15 7 4 11 -11 10 -16 -6 -27 -27 -21 -49 -4 -64 48 -12 40 -52 94 -52 71 0 -5
-5 -2 -10 6 -6 9 -10 10 -10 3 0 -6 -2 -18 -6 -26 -4 -10 2 -14 22 -13 15 0
28 -5 30 -12 1 -7 1 -9 -2 -4 -2 4 -20 6 -39 4 -38 -5 -40 0 -24 47 15 43 -3
65 -45 56 -17 -3 -42 -8 -55 -11 -24 -5 -51 11 -51 30 0 6 18 29 40 51 45 46
48 62 19 100 -18 22 -20 29 -8 36 8 5 18 9 22 9 4 0 7 6 6 13 -1 6 0 19 1 27
2 8 6 -17 9 -56 3 -40 12 -79 21 -89z m19 68 c1 -17 -3 -34 -8 -37 -12 -8 -21
42 -14 79 6 25 7 27 14 10 4 -11 8 -34 8 -52z m366 -15 l4 -53 -11 43 c-6 23
-15 42 -21 42 -19 0 -35 -34 -27 -55 4 -11 7 -36 5 -54 -2 -25 2 -34 19 -41
20 -8 20 -9 1 -9 -31 -1 -45 12 -44 44 1 17 0 47 -1 68 -3 30 3 44 25 67 35
37 44 27 50 -52z m2131 -14 c50 -24 98 -42 107 -39 18 7 60 -14 100 -49 32
-29 34 -36 9 -36 -10 0 -26 -6 -37 -13 -16 -12 -5 -15 80 -20 126 -7 189 -37
309 -149 l86 -80 -2 -196 -3 -196 -83 -48 c-46 -26 -89 -48 -94 -48 -25 0 -81
55 -99 97 -21 48 -119 153 -143 153 -35 0 -13 18 28 22 24 3 55 14 69 24 32
23 35 39 5 23 -12 -7 -56 -15 -98 -20 -80 -8 -123 -23 -178 -63 -21 -16 -53
-27 -90 -31 -31 -3 -87 -19 -123 -36 -79 -35 -155 -59 -190 -59 -37 0 -85 26
-109 59 l-20 29 21 26 c31 40 66 53 155 59 92 5 110 13 174 73 26 24 63 50 83
59 20 8 60 38 89 65 29 28 60 53 70 56 10 3 18 9 18 14 0 10 -70 -8 -84 -21
-6 -5 -36 -9 -68 -9 -45 0 -58 3 -58 15 0 24 -14 17 -32 -15 -21 -36 -38 -39
-38 -6 0 14 -4 28 -10 31 -6 4 -10 -10 -10 -34 0 -23 -2 -41 -4 -41 -2 0 -11
-3 -20 -6 -13 -5 -16 2 -16 34 0 23 -4 43 -9 47 -6 3 -8 -9 -4 -29 8 -50 -4
-88 -26 -84 -10 2 -34 -9 -54 -25 -47 -36 -79 -47 -134 -47 -58 0 -83 21 -83
67 0 31 6 37 61 71 33 20 110 68 171 105 133 83 141 86 247 99 121 14 145 29
44 25 -44 -1 -77 1 -71 4 17 11 -23 19 -42 9 -10 -6 -26 -10 -36 -10 -9 0 -41
-18 -70 -40 -60 -46 -78 -52 -44 -15 13 14 21 28 17 31 -3 3 -38 -26 -77 -65
-89 -89 -118 -105 -184 -98 -38 3 -55 11 -73 31 -44 51 -29 73 92 134 33 16
96 61 140 99 90 77 127 103 149 103 8 0 28 -12 45 -26 36 -30 42 -12 9 24
l-23 24 35 -7 c19 -3 76 -27 126 -51z m-1288 20 c78 -32 144 -107 153 -174 6
-39 -23 -31 -34 10 -11 43 -74 110 -131 139 -75 37 -162 25 -210 -28 -24 -27
-22 -26 38 4 27 14 62 25 78 25 43 0 104 -36 133 -77 30 -45 32 -74 5 -98 -17
-16 -31 -17 -112 -11 -156 12 -168 15 -184 50 l-13 31 -1 -27 c0 -16 -5 -28
-10 -28 -32 0 -16 80 27 131 62 73 164 94 261 53z m-718 -34 c-18 -12 -30 -13
-30 -2 0 4 10 9 22 9 18 2 20 0 8 -7z m54 -17 c3 -8 3 -20 -1 -26 -3 -5 -9
-24 -13 -41 -6 -26 -8 -20 -11 30 -3 44 -1 60 8 57 6 -3 14 -11 17 -20z m-288
-51 c-4 -3 -11 -1 -17 5 -8 8 -7 18 3 34 l13 24 3 -28 c2 -16 1 -31 -2 -35z
m246 -18 c-10 -47 -32 -58 -32 -15 0 16 5 42 11 58 9 24 12 26 20 11 5 -9 6
-33 1 -54z m-43 -6 c-1 -41 -1 -42 -11 -15 -5 15 -7 34 -4 42 10 27 16 16 15
-27z m-399 -29 c0 -4 8 -10 18 -13 9 -3 23 -16 31 -28 13 -22 13 -22 -15 2
-53 45 -83 78 -77 84 6 6 43 -32 43 -45z m1643 -50 c-32 -21 -63 -39 -70 -39
-6 0 -52 -27 -101 -60 -87 -58 -176 -148 -232 -232 -14 -21 -28 -38 -32 -38
-10 0 -10 171 0 186 4 6 25 15 47 20 l40 9 -47 3 c-50 3 -64 18 -25 26 12 3
49 12 82 20 l60 16 -81 -5 -82 -5 -5 27 c-3 16 -2 31 1 34 4 3 70 11 147 18
121 10 315 48 332 65 3 3 10 3 15 0 5 -3 -17 -23 -49 -45z m-1923 -23 c25 -32
87 -104 138 -159 90 -99 103 -117 82 -117 -5 0 -10 -4 -10 -8 0 -5 13 -7 28
-4 32 4 56 -17 46 -41 -3 -9 -28 -21 -54 -28 -27 -7 -47 -16 -44 -20 3 -5 16
-4 30 1 40 16 42 13 28 -42 -8 -29 -14 -72 -14 -96 0 -24 -4 -52 -10 -62 -13
-25 -72 -60 -100 -60 -23 0 -23 0 -17 113 3 62 11 126 18 143 6 16 11 58 12
94 0 94 -21 129 -125 212 -55 44 -46 25 22 -47 64 -65 80 -101 80 -173 0 -47
-10 -55 -95 -72 -38 -7 -38 -8 -8 -9 17 -1 44 4 59 9 15 6 28 9 30 7 2 -1 -4
-25 -12 -52 -11 -35 -13 -69 -9 -116 6 -55 3 -75 -13 -112 -23 -52 -45 -67
-97 -67 -101 0 -119 54 -101 312 l9 127 -66 68 c-78 81 -100 80 -26 -1 l51
-56 -33 -1 c-19 0 -43 -4 -54 -9 -16 -7 -12 -9 20 -9 55 -2 85 -11 85 -27 0
-7 -15 -16 -32 -19 -18 -3 -53 -10 -78 -15 -45 -9 -44 -9 15 -6 33 2 68 7 78
11 12 5 17 3 17 -9 0 -9 -12 -18 -27 -22 -16 -3 -50 -12 -78 -20 l-50 -14 59
5 c32 3 67 10 79 16 18 10 19 9 13 -12 -3 -13 -9 -77 -13 -141 l-6 -118 -39 0
c-80 0 -123 79 -133 245 -5 69 -13 119 -22 133 -21 34 -26 21 -12 -27 15 -50
5 -65 -21 -31 -23 29 -26 17 -6 -22 10 -20 11 -28 3 -31 -7 -2 -3 -12 11 -23
17 -15 24 -35 31 -91 10 -77 34 -128 78 -163 27 -21 87 -27 98 -10 10 17 33
11 40 -10 9 -29 74 -70 110 -70 37 0 87 29 116 69 17 23 31 31 53 31 79 0 110
36 121 140 8 78 31 166 46 176 12 7 66 -29 87 -58 7 -10 22 -18 32 -18 24 0
34 -16 18 -27 -28 -17 -57 -117 -38 -128 6 -4 10 12 10 38 0 47 18 71 76 100
42 22 178 14 214 -11 31 -22 70 -96 63 -120 -17 -68 -100 -104 -175 -76 -102
37 -134 45 -170 39 -56 -10 -144 -72 -223 -157 -83 -90 -122 -114 -195 -123
-50 -5 -60 -3 -115 29 -56 33 -58 35 -29 36 16 0 39 7 50 15 17 14 13 15 -51
14 -80 -3 -71 -6 -290 120 l-145 83 0 38 c0 21 13 66 31 103 17 37 40 117 54
184 28 139 34 157 72 202 24 28 37 34 81 39 50 4 67 15 40 25 -23 8 1 20 50
25 39 3 59 -1 101 -23 59 -29 76 -28 36 3 l-25 20 27 10 c47 18 66 9 113 -52z
m480 42 c24 -13 46 -30 48 -38 3 -10 -3 -8 -19 6 -30 27 -90 47 -114 38 -13
-5 -16 -4 -11 4 11 18 47 14 96 -10z m215 -6 c-3 -3 -11 0 -18 7 -9 10 -8 11
6 5 10 -3 15 -9 12 -12z m-305 -12 c0 -5 -5 -10 -11 -10 -5 0 -7 5 -4 10 3 6
8 10 11 10 2 0 4 -4 4 -10z m63 -5 c51 -21 55 -36 6 -22 -24 7 -44 18 -47 25
-5 15 -2 15 41 -3z m-38 -25 c3 -5 14 -10 24 -10 23 0 58 -26 48 -36 -4 -5
-11 -4 -15 2 -4 6 -22 16 -40 23 -33 14 -52 31 -33 31 5 0 13 -4 16 -10z m924
-6 c2 -2 -18 -4 -45 -4 -34 0 -44 3 -34 9 12 9 68 4 79 -5z m-659 -16 c11 3
12 2 4 -8 -14 -14 -54 3 -54 22 0 7 7 5 18 -4 9 -9 24 -13 32 -10z m740 18 c0
-2 -13 -6 -30 -8 -16 -3 -30 -1 -30 4 0 4 14 8 30 8 17 0 30 -2 30 -4z m30 -6
c0 -5 -4 -10 -9 -10 -5 0 -17 -7 -25 -16 -15 -14 -16 -14 -16 0 0 9 7 16 15
16 8 0 15 5 15 10 0 6 5 10 10 10 6 0 10 -4 10 -10z m-802 -85 c20 -14 42 -25
48 -25 6 0 17 -7 24 -15 17 -21 1 -19 -37 5 -18 11 -38 17 -45 15 -17 -6 -49
60 -40 82 6 14 8 13 10 -10 2 -18 15 -35 40 -52z m675 61 c31 -24 21 -39 -20
-31 -41 7 -50 12 -41 21 4 3 16 0 28 -6 28 -15 39 -4 14 15 -10 8 -14 14 -9
14 6 0 18 -6 28 -13z m137 -16 c0 -17 -6 -20 -47 -18 l-48 1 42 4 c32 3 41 8
36 19 -3 7 0 14 6 14 6 0 11 -9 11 -20z m-761 -19 c11 -7 21 -19 21 -27 0 -12
-7 -11 -41 8 -55 31 -71 50 -31 39 16 -5 39 -14 51 -20z m32 9 l24 -20 -32 16
c-33 15 -41 24 -24 24 5 0 19 -9 32 -20z m-285 -54 c0 -13 -5 -22 -10 -18 -5
3 -7 -2 -3 -11 4 -11 2 -14 -9 -10 -9 3 -14 -2 -14 -17 0 -11 -4 -18 -10 -15
-5 3 -10 -2 -10 -12 0 -11 -6 -25 -12 -32 -11 -10 -9 -11 6 -5 13 5 17 4 12
-4 -4 -7 -3 -12 3 -12 5 0 13 10 17 22 7 23 34 55 34 41 0 -5 -12 -25 -26 -46
-24 -36 -27 -37 -47 -24 -37 24 -34 61 8 93 21 15 41 38 46 51 11 30 17 29 15
-1z m304 4 c0 -11 -4 -20 -9 -20 -5 0 -7 9 -4 20 3 11 7 20 9 20 2 0 4 -9 4
-20z m559 14 c29 -6 45 -34 19 -34 -9 0 -9 -3 0 -12 8 -8 12 -47 12 -112 0
-123 -13 -118 -17 7 -2 57 -8 94 -16 99 -7 4 -8 8 -4 8 5 0 1 7 -8 16 -9 9
-19 13 -23 10 -3 -4 0 -11 8 -17 11 -7 12 -11 3 -17 -9 -6 -10 -50 -5 -176 4
-92 3 -170 -1 -173 -5 -3 -4 -10 2 -16 8 -8 14 -7 24 2 10 10 8 11 -8 6 -16
-5 -17 -5 -5 3 8 6 17 9 21 6 4 -2 10 8 13 21 8 32 25 24 19 -7 -2 -13 -22
-35 -43 -50 l-38 -28 -1 235 c-1 136 2 235 7 235 5 0 24 -3 41 -6z m159 -19
c-2 -1 -24 -5 -50 -8 -35 -5 -48 -3 -48 6 0 8 15 11 51 8 28 -1 49 -4 47 -6z
m-8 -154 c0 -98 -2 -110 -24 -140 -32 -43 -63 -65 -71 -51 -4 6 -4 18 -1 27 5
13 9 13 23 2 15 -12 16 -12 10 3 -4 13 -2 15 10 11 10 -4 14 -2 10 4 -4 6 0
17 9 24 11 9 14 22 10 41 -3 16 -2 27 2 24 10 -6 7 133 -4 144 -5 5 -20 7 -33
3 -22 -6 -23 -9 -19 -84 2 -44 0 -79 -3 -79 -4 0 -7 40 -8 89 l-2 90 33 3 c57
6 58 5 58 -111z m1227 74 c-15 -14 -35 -25 -43 -25 -8 0 -35 -19 -60 -42 -39
-36 -46 -39 -57 -25 -7 9 -23 20 -37 25 l-25 9 33 17 c23 12 43 15 68 10 28
-5 39 -2 55 15 11 11 15 21 10 21 -6 0 -14 -7 -19 -15 -6 -12 -14 -14 -32 -7
-16 6 -20 11 -11 16 23 14 65 24 106 25 l40 0 -28 -24z m-1862 -35 c-8 -13
-35 -13 -55 0 -11 7 -5 10 23 10 23 0 36 -4 32 -10z m1666 -60 c28 -15 24 -40
-7 -40 -14 0 -23 4 -20 9 8 13 -45 24 -57 12 -6 -6 -20 -11 -31 -11 -16 0 -18
-2 -7 -9 11 -7 5 -12 -22 -19 -20 -6 -49 -19 -65 -31 -22 -15 -29 -17 -29 -6
0 8 13 19 29 24 37 13 36 22 -2 19 -16 -1 -30 -6 -30 -10 0 -5 -10 -6 -22 -3
-32 7 -70 -15 -79 -46 -5 -21 -3 -26 10 -23 81 15 81 15 71 -12 -5 -13 -9 -30
-7 -36 1 -6 -16 -13 -40 -14 -34 -3 -45 0 -53 16 -20 38 -12 72 28 110 37 35
42 36 113 38 49 1 69 -2 59 -8 -9 -6 -10 -10 -3 -10 7 0 16 7 20 14 10 18 70
45 101 46 13 0 32 -5 43 -10z m-48 -45 c1 -5 -11 -12 -27 -13 -27 -3 -28 -2
-16 13 14 17 40 17 43 0z m-1968 -46 c7 -7 1 -8 -20 -3 -46 11 -67 26 -25 19
19 -3 39 -10 45 -16z m1760 2 c6 -11 -26 -31 -49 -31 -19 0 -21 26 -3 33 21 9
46 8 52 -2z m633 -133 c2 -46 2 -80 -2 -77 -3 3 -7 25 -8 48 -1 33 -7 46 -26
59 -23 15 -23 16 -6 30 17 13 17 14 2 9 -10 -4 -18 -2 -18 3 0 15 34 30 44 20
5 -5 11 -47 14 -92z m-65 47 c-3 -9 -8 -14 -10 -11 -3 3 -12 -1 -19 -9 -8 -7
-39 -17 -69 -20 -31 -4 -62 -13 -69 -21 -8 -7 -16 -11 -19 -8 -6 7 -47 -45
-47 -61 0 -6 -6 -12 -14 -12 -17 0 35 79 67 100 12 8 45 18 73 21 28 4 61 13
75 21 33 18 39 18 32 0z m-618 -53 c-3 -3 -11 0 -18 7 -9 10 -8 11 6 5 10 -3
15 -9 12 -12z m66 -9 c13 -16 12 -17 -3 -4 -17 13 -22 21 -14 21 2 0 10 -8 17
-17z m339 -99 c-18 -21 -24 -10 -8 15 7 12 14 17 16 11 2 -6 -2 -17 -8 -26z
m-401 -5 c40 -8 54 -17 74 -47 14 -20 28 -49 31 -64 l6 -28 -70 0 c-40 0 -70
4 -70 10 0 11 17 13 63 10 20 -1 27 3 27 16 0 16 1 16 15 -2 12 -16 14 -16 15
-3 0 18 -33 52 -42 43 -3 -3 -5 1 -4 8 0 7 -2 14 -6 16 -4 2 -24 10 -45 18
-34 15 -36 15 -23 0 10 -13 11 -19 1 -29 -10 -9 -11 -8 -6 6 6 14 2 17 -21 17
-34 0 -42 -5 -72 -44 -23 -30 -30 -66 -12 -66 5 0 7 7 4 15 -4 8 -1 15 4 15 6
0 9 -10 7 -22 -5 -24 -30 -48 -51 -48 -31 0 50 159 90 179 27 13 27 13 85 0z
m-49 -89 c12 -7 11 -12 -5 -30 -29 -33 -55 -44 -55 -25 0 8 7 15 15 15 20 0
39 37 22 43 -6 3 -7 6 -2 6 6 0 17 -3 25 -9z m-282 -33 c8 -6 12 -5 12 2 0 7
5 9 10 6 6 -3 10 -11 10 -16 0 -6 -4 -7 -10 -4 -5 3 -10 2 -10 -4 0 -5 7 -14
16 -19 9 -5 14 -18 12 -32 -2 -18 -15 -27 -53 -40 -60 -21 -118 -53 -227 -125
-44 -30 -103 -59 -129 -66 -27 -7 -49 -18 -49 -25 0 -7 -9 -15 -20 -19 -11 -3
-45 -26 -75 -51 -30 -25 -55 -43 -55 -41 0 3 25 55 54 115 66 132 108 169 148
129 24 -24 58 -38 78 -32 19 6 26 29 32 100 3 32 7 33 73 20 24 -5 36 0 58 22
16 15 37 42 47 60 19 32 50 40 78 20z m684 -179 c25 -24 60 -55 77 -70 39 -33
41 -81 4 -86 -17 -2 -29 7 -49 40 -16 24 -43 62 -62 86 -19 24 -31 49 -28 57
3 8 7 15 9 15 2 0 24 -19 49 -42z m-762 -99 c-32 -97 -53 -139 -70 -139 -6 0
-10 8 -10 18 0 18 101 225 107 219 2 -2 -10 -46 -27 -98z"/>
<path d="M2330 4411 c8 -6 24 -11 35 -12 11 -1 -7 -7 -40 -14 -33 -7 -49 -13
-35 -14 14 0 55 5 91 13 42 9 82 11 108 6 52 -9 54 3 2 18 -50 15 -74 15 -65
0 5 -8 2 -9 -12 -4 -10 5 -37 10 -59 13 -30 3 -36 2 -25 -6z"/>
<path d="M2576 4397 c3 -9 21 -23 39 -31 38 -18 45 -19 45 -8 0 7 -30 25 -83
50 -4 2 -4 -3 -1 -11z"/>
<path d="M2590 4330 c-23 -7 -23 -8 -3 -9 12 -1 25 4 28 9 3 6 5 10 3 9 -2 -1
-14 -5 -28 -9z"/>
<path d="M2490 4320 c-32 -7 -31 -7 18 -9 33 -1 51 3 47 9 -7 11 -13 11 -65 0z"/>
<path d="M2370 4310 c-12 -8 -12 -10 5 -10 11 0 27 5 35 10 12 8 12 10 -5 10
-11 0 -27 -5 -35 -10z"/>
<path d="M2720 4305 c0 -8 5 -15 11 -15 5 0 7 5 3 11 -5 9 1 10 22 5 21 -5 25
-4 14 4 -22 15 -50 12 -50 -5z"/>
<path d="M2410 4255 c46 -18 64 -17 25 0 -16 8 -37 14 -45 14 -8 0 1 -7 20
-14z"/>
<path d="M2772 4245 c15 -16 29 -27 31 -24 3 2 -10 15 -27 28 l-31 24 27 -28z"/>
<path d="M2827 4199 c7 -7 15 -10 18 -7 3 3 -2 9 -12 12 -14 6 -15 5 -6 -5z"/>
<path d="M2590 4196 c0 -2 7 -7 16 -10 8 -3 12 -2 9 4 -6 10 -25 14 -25 6z"/>
<path d="M2872 4185 c-11 -13 -9 -15 12 -15 18 0 24 4 20 15 -8 19 -15 18 -32
0z"/>
<path d="M1600 4150 c-12 -8 -11 -10 8 -10 12 0 22 5 22 10 0 13 -11 13 -30 0z"/>
<path d="M1547 4104 c-16 -9 -26 -18 -23 -21 7 -8 66 17 66 28 0 12 -10 11
-43 -7z"/>
<path d="M3140 4015 c7 -9 15 -13 17 -11 7 7 -7 26 -19 26 -6 0 -6 -6 2 -15z"/>
<path d="M2086 4099 c3 -5 -1 -6 -9 -3 -8 3 -18 1 -21 -5 -4 -6 -19 -8 -35 -5
-18 4 -43 -2 -70 -16 -24 -12 -55 -23 -69 -25 -15 -1 -31 -3 -37 -4 -5 -1 -3
-6 5 -11 12 -8 10 -10 -9 -10 -13 0 -22 -3 -18 -6 8 -8 119 16 135 29 7 5 29
10 49 9 20 -1 40 1 46 5 23 14 258 13 377 -2 69 -8 145 -18 169 -20 23 -3 50
-9 60 -14 9 -4 22 -6 29 -4 6 3 12 -1 12 -7 0 -7 7 -10 16 -6 10 4 13 2 8 -6
-5 -7 1 -9 19 -4 15 3 27 2 29 -5 2 -6 17 -11 33 -11 17 0 42 -9 57 -19 14
-11 34 -19 43 -19 16 0 82 -35 95 -50 4 -4 32 -19 74 -38 5 -3 5 1 1 8 -5 9
-4 11 4 6 6 -4 9 -11 6 -16 -3 -4 6 -15 20 -24 15 -10 26 -12 30 -6 6 10 5 11
-14 14 -5 0 -13 4 -17 8 -3 4 3 6 14 3 72 -13 -25 50 -130 86 -21 7 -38 17
-38 21 0 4 -6 8 -14 8 -7 0 -19 7 -26 15 -10 12 -16 13 -28 3 -10 -8 -13 -8
-9 -2 4 7 -6 16 -26 24 -17 7 -54 22 -82 35 -27 13 -66 25 -85 28 -19 2 -81
14 -136 25 -83 17 -135 21 -283 20 -99 0 -178 -5 -175 -9z m-86 -23 c0 -2 -7
-7 -16 -10 -8 -3 -12 -2 -9 4 6 10 25 14 25 6z"/>
<path d="M1767 4007 c3 -5 -3 -6 -17 -2 -17 5 -21 4 -15 -5 5 -9 4 -11 -3 -6
-14 8 -114 -33 -107 -44 3 -4 -9 -10 -26 -14 -20 -4 -28 -10 -23 -18 5 -8 2
-9 -10 -5 -9 4 -25 -1 -36 -11 -12 -9 -24 -17 -28 -18 -20 -2 -41 -17 -36 -25
3 -5 0 -9 -7 -9 -7 0 -10 -2 -7 -5 8 -9 38 6 32 16 -3 5 9 9 25 9 17 0 31 4
31 8 0 4 14 13 31 19 17 7 28 16 25 22 -3 5 13 12 36 16 24 4 48 11 54 16 6 5
37 20 69 33 51 21 55 24 32 28 -16 3 -24 1 -20 -5z"/>
<path d="M1394 3808 c-12 -5 -27 -22 -34 -36 l-11 -26 28 28 c15 16 37 32 48
37 12 5 14 8 5 8 -8 0 -25 -5 -36 -11z"/>
<path d="M1289 3716 c-13 -19 -26 -33 -30 -30 -4 2 -6 -4 -5 -14 0 -9 -4 -16
-11 -15 -7 2 -10 -4 -7 -12 6 -15 25 -22 22 -7 -3 15 15 42 25 35 5 -3 7 -2 4
4 -7 11 36 53 54 53 5 0 7 5 4 10 -12 19 -32 10 -56 -24z"/>
<path d="M1193 3594 c-17 -19 -39 -54 -48 -79 -10 -24 -21 -42 -25 -40 -8 5
-23 -32 -21 -49 1 -4 -3 -13 -8 -20 -6 -8 -6 -17 1 -26 8 -12 9 -12 4 2 -6 20
10 34 17 16 3 -7 4 1 2 17 -3 32 11 58 26 49 5 -3 6 3 2 12 -4 10 -2 15 3 11
6 -3 21 18 34 46 13 29 30 57 38 64 8 6 12 16 11 22 -2 5 -18 -6 -36 -25z"/>
<path d="M2920 3778 c3 -3 43 -22 90 -43 84 -38 156 -81 218 -131 52 -43 37
-10 -24 50 -67 66 -158 114 -234 123 -30 3 -53 4 -50 1z"/>
<path d="M2765 3763 c-16 -3 -34 -9 -39 -14 -16 -15 49 -10 80 6 30 16 24 17
-41 8z"/>
<path d="M2170 3729 c-270 -11 -490 -37 -634 -74 -159 -42 -273 -199 -297
-410 -14 -128 -14 -370 1 -440 27 -128 99 -224 204 -270 215 -93 806 -160
1086 -122 63 9 169 23 235 32 323 43 501 131 550 273 25 74 38 306 25 442 -26
270 -76 393 -185 454 -140 78 -592 131 -985 115z m-60 -113 c0 -16 -53 -31
-70 -21 -18 11 10 35 41 35 18 0 29 -5 29 -14z m-130 -16 c0 -5 -6 -10 -14
-10 -8 0 -18 5 -21 10 -3 6 3 10 14 10 12 0 21 -4 21 -10z m882 -5 c138 -36
247 -111 295 -203 32 -60 53 -139 34 -127 -6 3 -11 12 -11 19 0 20 -60 124
-89 155 -43 45 -112 90 -190 121 -40 17 -79 30 -86 30 -8 0 -17 5 -20 10 -8
13 -4 13 67 -5z m143 -16 c11 -17 2 -18 -25 -4 -24 14 -24 14 -3 15 12 0 25
-5 28 -11z m-572 -157 l137 -137 -49 -52 -49 -52 -90 90 -91 90 -83 -86 c-45
-47 -87 -85 -92 -85 -6 0 -32 21 -58 47 l-48 48 137 137 c76 76 140 138 143
138 3 0 67 -62 143 -138z m703 71 c34 -27 91 -119 80 -130 -2 -3 -11 8 -20 24
-8 16 -36 53 -61 81 -52 58 -52 66 1 25z m-1796 -105 c0 -27 -16 -55 -25 -46
-9 9 5 68 16 68 5 0 9 -10 9 -22z m-17 -223 c-6 -70 -11 -90 -23 -90 -30 0
-18 207 13 227 16 10 19 -28 10 -137z m1927 53 c0 -36 -4 -35 -14 5 -4 16 -2
27 4 27 5 0 10 -14 10 -32z m-1258 -58 l52 -51 -52 -52 -52 -52 -52 52 -53 53
50 50 c27 27 51 50 52 50 2 0 27 -23 55 -50z m350 3 c26 -26 48 -50 48 -54 0
-9 -89 -99 -98 -99 -4 0 -30 22 -56 49 l-49 50 48 50 c27 28 51 51 54 51 3 0
27 -21 53 -47z m357 -6 c20 -21 37 -42 39 -46 3 -8 -84 -101 -95 -101 -11 0
-94 93 -91 101 8 21 91 98 100 93 6 -4 27 -25 47 -47z m-491 -213 l84 -86 89
88 89 89 50 -51 51 -50 -136 -137 c-75 -75 -139 -137 -143 -137 -4 0 -69 62
-144 137 l-138 138 47 47 c26 27 52 48 57 48 5 0 48 -39 94 -86z m-900 17 c-3
-57 -18 -58 -18 -2 0 33 6 51 17 51 2 0 2 -22 1 -49z m12 -131 c0 -5 -2 -10
-4 -10 -3 0 -8 5 -11 10 -3 6 -1 10 4 10 6 0 11 -4 11 -10z m1864 -154 c-2
-41 -25 -73 -44 -61 -8 5 -10 20 -7 42 12 69 53 84 51 19z m-1365 -98 c55 -18
184 -41 303 -53 65 -6 90 -18 72 -35 -5 -4 -72 -3 -148 2 -181 11 -336 59
-336 103 0 17 18 14 109 -17z m-179 -13 c15 -18 -1 -21 -30 -5 -13 7 -21 7
-25 0 -4 -6 -11 -7 -18 -3 -7 4 -4 9 9 14 30 12 51 10 64 -6z m56 -12 c-7 -7
-26 7 -26 19 0 6 6 6 15 -2 9 -7 13 -15 11 -17z m619 -63 c-3 -5 -15 -10 -25
-10 -10 0 -22 5 -25 10 -4 6 7 10 25 10 18 0 29 -4 25 -10z"/>
<path d="M3125 2474 c-270 -112 -446 -139 -910 -138 -311 0 -350 2 -453 23
-117 23 -229 54 -272 76 -58 29 -73 26 -25 -6 59 -41 228 -110 340 -140 94
-25 109 -34 42 -25 -60 7 -61 -12 -1 -29 29 -9 35 -14 22 -19 -17 -8 -265 17
-348 34 -87 18 -140 22 -140 10 0 -6 12 -15 27 -21 55 -21 293 -69 389 -79 55
-6 124 -15 154 -20 92 -17 473 -24 590 -11 58 6 170 18 250 26 161 16 320 43
335 56 14 13 -19 11 -177 -12 -114 -17 -172 -20 -286 -16 -85 3 -149 10 -155
16 -8 8 15 11 86 11 80 0 97 3 97 15 0 12 -19 15 -102 16 -146 2 -186 13 -83
23 119 11 201 30 393 90 129 41 190 65 238 96 89 59 87 65 -11 24z"/>
<path d="M1326 2415 c16 -24 44 -45 60 -45 4 0 -7 16 -26 35 -40 41 -58 46
-34 10z"/>
<path d="M1330 2372 c0 -13 35 -42 50 -42 9 0 5 9 -10 25 -24 25 -40 32 -40
17z"/>
<path d="M3035 2280 c-16 -4 -24 -8 -16 -9 11 -1 10 -5 -5 -17 -19 -15 -19
-15 1 -5 21 10 64 41 55 39 -3 0 -18 -4 -35 -8z"/>
<path d="M2975 2270 c-3 -6 1 -7 9 -4 18 7 21 14 7 14 -6 0 -13 -4 -16 -10z"/>
<path d="M2811 2260 c9 -5 28 -6 45 0 27 8 26 8 -16 9 -32 0 -40 -2 -29 -9z"/>
<path d="M3402 2219 c-1 -20 -4 -52 -7 -70 l-5 -34 11 33 c5 19 8 50 6 70 l-4
37 -1 -36z"/>
<path d="M1180 2209 c0 -11 60 -42 68 -35 7 7 -26 33 -50 39 -10 3 -18 1 -18
-4z"/>
<path d="M3334 2195 c-39 -16 -53 -35 -26 -35 21 0 70 35 62 43 -3 3 -19 -1
-36 -8z"/>
<path d="M1346 2125 c21 -16 54 -20 54 -6 0 11 -25 21 -53 21 -20 0 -20 0 -1
-15z"/>
<path d="M1550 2092 c0 -14 25 -22 68 -22 26 0 33 3 25 11 -15 15 -93 24 -93
11z"/>
<path d="M3025 2090 c-16 -7 -13 -9 17 -9 20 -1 40 4 43 9 7 12 -32 12 -60 0z"/>
<path d="M1835 2050 c3 -5 27 -10 53 -9 38 1 42 2 22 9 -37 12 -82 12 -75 0z"/>
<path d="M2735 2050 c-4 -6 6 -10 24 -10 16 0 33 5 36 10 4 6 -6 10 -24 10
-16 0 -33 -4 -36 -10z"/>
<path d="M2145 2039 c-15 -6 -11 -8 18 -8 20 -1 37 1 37 3 0 9 -37 12 -55 5z"/>
<path d="M2411 2041 c-11 -7 -5 -11 22 -16 38 -7 61 0 52 16 -8 12 -56 12 -74
0z"/>
<path d="M1745 2015 c11 -9 29 -21 40 -26 l20 -10 -20 16 c-11 9 -29 21 -40
26 l-20 10 20 -16z"/>
<path d="M1580 1980 c0 -8 38 -15 122 -23 44 -3 40 10 -5 17 -76 12 -117 14
-117 6z"/>
<path d="M2100 1971 c-30 -4 28 -10 173 -15 133 -5 231 -5 250 1 29 8 27 9
-23 9 -30 -1 -122 2 -205 6 -82 3 -170 3 -195 -1z"/>
<path d="M2695 1970 c-41 -10 113 -11 180 0 42 6 34 7 -50 7 -55 1 -113 -3
-130 -7z"/>
<path d="M1840 1960 c0 -5 -19 -10 -42 -10 -24 0 -50 -5 -58 -10 -15 -11 8
-10 175 6 53 5 64 9 45 15 -38 11 -120 10 -120 -1z"/>
<path d="M3190 1961 c-17 -5 -21 -9 -13 -14 12 -7 53 7 53 18 0 6 -7 5 -40 -4z"/>
<path d="M3148 1913 c7 -3 16 -2 19 1 4 3 -2 6 -13 5 -11 0 -14 -3 -6 -6z"/>
<path d="M3068 1893 c6 -2 18 -2 25 0 6 3 1 5 -13 5 -14 0 -19 -2 -12 -5z"/>
<path d="M1648 1873 c7 -3 16 -2 19 1 4 3 -2 6 -13 5 -11 0 -14 -3 -6 -6z"/>
<path d="M1650 1858 c-19 -5 -39 -14 -45 -20 -16 -17 57 0 75 17 8 8 12 15 10
14 -3 0 -21 -5 -40 -11z"/>
<path d="M1123 3070 c0 -36 2 -50 4 -32 2 17 2 47 0 65 -2 17 -4 3 -4 -33z"/>
<path d="M970 2390 c-18 -12 -2 -12 25 0 13 6 15 9 5 9 -8 0 -22 -4 -30 -9z"/>
<path d="M1053 2175 c0 -44 2 -61 4 -37 2 23 2 59 0 80 -2 20 -4 1 -4 -43z"/>
<path d="M902 2165 c-1 -46 3 -73 14 -90 26 -40 34 -29 34 48 0 59 -4 77 -18
90 -10 10 -21 17 -23 17 -3 0 -6 -29 -7 -65z m28 -27 c0 -38 -3 -49 -11 -41
-10 10 -4 93 7 93 2 0 4 -23 4 -52z"/>
<path d="M988 2159 c-1 -28 0 -53 5 -56 4 -2 7 21 7 51 0 70 -7 73 -12 5z"/>
<path d="M647 1810 c-3 -11 -1 -23 4 -26 5 -3 9 -1 9 5 0 5 3 16 6 25 3 9 2
16 -4 16 -5 0 -12 -9 -15 -20z"/>
<path d="M636 1721 c-3 -4 6 -6 19 -3 14 2 25 6 25 8 0 8 -39 4 -44 -5z"/>
<path d="M531 1641 c-26 -17 -4 -41 36 -41 40 0 87 25 78 41 -8 11 -95 12
-114 0z m84 -11 c4 -6 -11 -10 -37 -10 -31 0 -39 3 -28 10 20 13 57 13 65 0z"/>
<path d="M455 1469 c-18 -95 -9 -144 14 -78 13 38 14 79 2 98 -7 11 -11 6 -16
-20z"/>
<path d="M657 1443 c-11 -20 -19 -75 -9 -69 12 7 27 65 19 72 -3 3 -7 2 -10
-3z"/>
<path d="M3573 2216 c4 -10 7 -30 8 -44 0 -15 3 -21 6 -14 2 6 9 10 13 7 5 -3
4 8 -1 25 -6 16 -16 33 -22 37 -7 4 -8 0 -4 -11z"/>
<path d="M3540 2160 c6 -11 15 -20 21 -20 6 0 6 7 -1 20 -6 11 -15 20 -21 20
-6 0 -6 -7 1 -20z"/>
<path d="M3636 2095 c8 -37 14 -45 14 -19 0 10 -5 26 -10 34 -8 11 -9 7 -4
-15z"/>
<path d="M3653 1970 c0 -47 2 -66 4 -42 2 23 2 61 0 85 -2 23 -4 4 -4 -43z"/>
<path d="M3851 1770 c-3 -35 34 -350 41 -350 11 0 10 49 -2 166 -10 92 -37
218 -39 184z"/>
<path d="M3637 1695 c-21 -45 -22 -62 -3 -46 15 12 32 69 24 77 -3 2 -12 -12
-21 -31z"/>
<path d="M3810 1613 c0 -16 5 -35 10 -43 7 -11 10 -4 10 28 0 23 -4 42 -10 42
-5 0 -10 -12 -10 -27z"/>
<path d="M3994 1616 c-5 -14 -9 -15 -15 -4 -7 10 -9 9 -9 -4 0 -26 18 -31 30
-7 7 11 9 23 6 26 -3 3 -9 -2 -12 -11z"/>
<path d="M3941 1448 c-1 -39 3 -68 9 -68 12 0 12 87 0 115 -6 14 -9 -1 -9 -47z"/>
<path d="M4091 1490 c0 -8 4 -22 9 -30 12 -18 12 -2 0 25 -6 13 -9 15 -9 5z"/>
<path d="M777 1823 c-4 -3 -7 -11 -7 -17 0 -6 5 -5 12 2 6 6 9 14 7 17 -3 3
-9 2 -12 -2z"/>
<path d="M770 1768 c-12 -22 -12 -22 6 -6 10 10 15 20 12 24 -4 3 -12 -5 -18
-18z"/>
<path d="M760 1678 c0 -19 2 -20 10 -8 13 19 13 30 0 30 -5 0 -10 -10 -10 -22z"/>
<path d="M1360 930 c0 -5 5 -10 11 -10 5 0 7 5 4 10 -3 6 -8 10 -11 10 -2 0
-4 -4 -4 -10z"/>
<path d="M1395 1840 c-3 -6 1 -7 9 -4 18 7 21 14 7 14 -6 0 -13 -4 -16 -10z"/>
<path d="M1140 1554 c0 -14 4 -23 9 -20 5 3 7 15 4 26 -7 28 -13 25 -13 -6z"/>
<path d="M3205 1515 c4 -11 9 -34 12 -52 6 -34 13 -32 -117 -47 -19 -2 2 -3
48 -2 45 2 85 5 88 8 9 10 -7 75 -23 95 -14 17 -14 17 -8 -2z"/>
<path d="M3370 1440 c8 -5 24 -10 34 -10 26 0 18 6 -19 14 -22 5 -26 4 -15 -4z"/>
<path d="M3441 1388 c1 -7 5 -24 9 -38 8 -24 8 -24 9 7 1 17 -3 35 -9 38 -5 3
-10 0 -9 -7z"/>
<path d="M3403 1335 c1 -19 5 -35 10 -35 10 0 9 58 -2 65 -6 3 -9 -10 -8 -30z"/>
<path d="M3370 1319 c0 -5 5 -7 10 -4 6 3 10 8 10 11 0 2 -4 4 -10 4 -5 0 -10
-5 -10 -11z"/>
<path d="M3590 1250 c0 -5 13 -16 30 -25 16 -8 33 -23 39 -32 5 -10 13 -15 17
-11 12 13 -24 55 -55 66 -18 6 -31 7 -31 2z"/>
<path d="M3211 1185 c-29 -25 -48 -45 -43 -45 5 0 17 9 27 20 10 11 24 20 30
20 7 0 20 11 29 25 9 14 15 25 13 25 -2 0 -27 -20 -56 -45z"/>
<path d="M3733 1203 c9 -2 23 -2 30 0 6 3 -1 5 -18 5 -16 0 -22 -2 -12 -5z"/>
<path d="M3904 1146 c32 -19 70 -47 83 -63 13 -15 21 -21 17 -13 -5 8 -10 24
-11 34 -2 11 -8 25 -14 32 -16 20 -75 44 -106 44 -25 -1 -22 -4 31 -34z"/>
<path d="M4020 1046 c0 -2 7 -9 15 -16 13 -11 14 -10 9 4 -5 14 -24 23 -24 12z"/>
<path d="M4121 945 c-1 -5 8 -21 19 -35 11 -14 20 -20 20 -14 0 7 -9 22 -20
35 -10 13 -19 20 -19 14z"/>
<path d="M4050 902 c0 -5 7 -15 15 -22 8 -7 15 -8 15 -2 0 5 -7 15 -15 22 -8
7 -15 8 -15 2z"/>
<path d="M3515 869 c9 -16 23 -33 30 -36 8 -3 12 -10 8 -17 -4 -8 -2 -8 7 1
10 9 7 19 -15 47 -33 44 -51 47 -30 5z"/>
<path d="M3695 884 c-16 -8 -41 -24 -55 -35 -19 -15 78 31 99 48 12 9 -18 1
-44 -13z"/>
<path d="M4036 840 c8 -44 24 -63 24 -29 0 14 -7 34 -15 45 -15 18 -16 17 -9
-16z"/>
<path d="M3481 823 c-1 -28 -35 -31 -51 -5 -9 13 -10 10 -4 -18 7 -41 24 -64
24 -33 0 18 6 21 35 20 19 -1 40 4 46 10 9 9 7 11 -8 7 -13 -4 -23 2 -30 18
l-12 23 0 -22z"/>
<path d="M3355 750 c-33 -17 -49 -28 -35 -24 34 9 89 35 96 45 7 13 6 12 -61
-21z"/>
<path d="M4140 729 c0 -5 5 -7 10 -4 6 3 10 8 10 11 0 2 -4 4 -10 4 -5 0 -10
-5 -10 -11z"/>
<path d="M840 1029 l-35 -19 65 6 c85 8 99 12 80 24 -24 15 -72 10 -110 -11z"/>
<path d="M927 953 c-27 -8 -47 -16 -45 -18 6 -6 92 15 103 26 12 12 2 11 -58
-8z"/>
<path d="M1431 804 c-20 -25 -27 -44 -17 -44 8 0 48 61 43 66 -2 3 -14 -7 -26
-22z"/>
<path d="M785 780 c-7 -23 2 -60 16 -60 12 0 11 14 -3 28 -8 8 -8 15 1 26 7 9
8 16 2 20 -5 4 -12 -3 -16 -14z"/>
<path d="M1360 745 c0 -19 2 -35 4 -35 2 0 6 16 8 35 2 19 0 35 -4 35 -4 0 -8
-16 -8 -35z"/>
<path d="M610 699 c0 -17 30 -49 46 -49 5 0 4 4 -2 8 -5 4 -18 18 -27 32 -12
17 -17 19 -17 9z"/>
<path d="M1177 653 c3 -6 11 -9 19 -6 20 7 17 19 -5 19 -11 0 -17 -6 -14 -13z"/>
<path d="M684 626 c11 -9 24 -16 30 -16 12 0 7 5 -24 19 -24 11 -24 11 -6 -3z"/>
<path d="M1046 535 c-3 -9 -11 -13 -17 -9 -8 4 -9 3 -5 -4 4 -7 3 -12 -2 -12
-6 0 -13 -8 -16 -17 -4 -11 7 -4 26 14 17 18 29 35 26 38 -3 3 -8 -1 -12 -10z"/>
<path d="M959 433 c-13 -16 -12 -17 4 -4 16 13 21 21 13 21 -2 0 -10 -8 -17
-17z"/>
<path d="M3074 802 c5 -3 -2 -11 -15 -18 -24 -14 -24 -14 6 -8 31 7 58 24 38
24 -6 0 -17 2 -25 3 -7 2 -9 2 -4 -1z"/>
<path d="M2694 466 c-6 -6 -10 -19 -8 -29 1 -9 -1 -16 -4 -14 -4 2 -15 -4 -24
-15 -10 -10 -15 -18 -12 -18 4 0 1 -7 -6 -15 -18 -21 -35 -19 -19 3 13 16 12
16 -6 1 -22 -17 -62 -22 -70 -9 -3 5 -12 7 -20 3 -10 -3 -15 -20 -15 -52 0
-25 4 -41 8 -35 4 6 17 14 30 18 12 4 19 12 16 18 -4 7 -2 8 4 4 6 -3 41 9 77
29 36 19 69 34 73 34 20 -3 25 2 12 12 -12 8 -9 10 13 6 15 -2 30 0 34 6 3 5
1 7 -4 4 -6 -4 -13 0 -16 8 -4 10 -1 12 10 8 11 -4 14 -2 11 8 -3 8 -10 13
-16 12 -6 -2 -9 3 -6 11 6 17 -47 19 -62 2z m30 -17 c-3 -5 -10 -7 -15 -3 -5
3 -7 10 -3 15 3 5 10 7 15 3 5 -3 7 -10 3 -15z"/>
<path d="M2364 286 c-3 -8 -19 -16 -35 -20 -16 -3 -28 -9 -27 -13 1 -5 -2 -19
-6 -32 -8 -24 9 -45 28 -34 5 3 6 1 2 -6 -6 -9 -14 -8 -33 5 -21 13 -25 14
-21 2 4 -8 -3 -20 -14 -27 -17 -11 -18 -15 -7 -22 19 -12 32 -11 24 1 -3 6 1
10 10 10 9 0 26 10 39 23 12 12 31 24 42 26 10 1 29 8 41 15 l23 11 -28 30
c-15 16 -26 33 -24 37 4 14 -8 8 -14 -6z"/>
<path d="M2420 251 c0 -5 7 -12 16 -15 14 -5 15 -4 4 9 -14 17 -20 19 -20 6z"/>
<path d="M3034 1335 c11 -8 25 -15 30 -15 6 0 2 7 -8 15 -11 8 -25 15 -30 15
-6 0 -2 -7 8 -15z"/>
<path d="M2970 1330 c20 -13 43 -13 35 0 -3 6 -16 10 -28 10 -18 0 -19 -2 -7
-10z"/>
<path d="M2934 1266 c-9 -23 0 -89 13 -93 7 -3 16 12 22 34 14 50 14 51 -9 63
-16 8 -22 8 -26 -4z m23 -43 c-3 -10 -5 -4 -5 12 0 17 2 24 5 18 2 -7 2 -21 0
-30z"/>
<path d="M2760 1160 c-135 -43 -240 -132 -240 -203 0 -16 10 -34 26 -46 23
-18 24 -22 9 -27 -30 -12 6 -23 55 -18 131 16 278 93 316 166 19 37 12 86 -17
116 -16 17 -31 22 -72 21 -29 0 -63 -4 -77 -9z m127 -18 c12 -8 12 -50 -1 -71
-4 -6 -12 -8 -18 -5 -6 4 -8 3 -5 -3 4 -6 -4 -20 -16 -31 -27 -26 -136 -82
-157 -81 -10 0 -11 2 -2 6 6 2 10 9 6 14 -3 5 6 9 19 9 14 0 30 7 37 15 7 8
16 12 21 9 5 -3 9 0 9 6 0 6 4 9 9 5 5 -3 17 5 25 17 9 12 16 18 16 13 0 -6 8
4 19 20 18 30 18 55 -1 55 -6 0 -8 -9 -5 -20 4 -14 0 -20 -11 -20 -15 0 -15
-2 -2 -10 8 -5 10 -10 4 -10 -19 0 -23 12 -11 31 9 15 9 24 -1 39 -11 18 -10
20 20 20 18 0 38 -4 45 -8z m-115 -17 c-36 -16 -56 -52 -39 -73 7 -9 13 -10
21 -2 5 5 19 10 31 10 14 -1 8 -7 -20 -20 -46 -22 -65 -25 -65 -9 0 6 7 9 15
5 16 -6 21 9 6 19 -6 3 -8 14 -6 25 4 19 2 19 -26 4 -21 -10 -29 -20 -25 -31
5 -12 3 -13 -6 -6 -18 15 -50 0 -81 -37 -32 -37 -37 -25 -6 14 33 42 167 115
214 115 14 0 10 -4 -13 -14z m38 -20 c0 -16 -60 -48 -70 -38 -5 5 50 53 63 53
4 0 7 -7 7 -15z m-186 -102 c-34 -25 -51 -14 -19 14 20 18 30 22 33 13 3 -7
-3 -19 -14 -27z m236 -13 c-48 -40 -153 -81 -225 -87 -56 -5 -59 -4 -40 10 19
16 19 16 -7 11 -16 -2 -28 0 -28 6 0 5 14 10 30 10 17 0 30 -4 30 -9 0 -20
155 21 210 55 67 42 75 43 30 4z m-211 -4 c-13 -6 -30 -16 -37 -23 -16 -15
-62 -17 -62 -3 0 6 12 10 28 10 15 0 38 9 52 19 13 11 29 17 34 13 5 -3 -1
-10 -15 -16z"/>
<path d="M2860 1125 c7 -8 17 -12 22 -9 6 4 5 10 -3 15 -22 14 -33 10 -19 -6z"/>
<path d="M1885 1106 c-11 -8 -16 -19 -12 -30 5 -12 20 -16 71 -16 77 0 96 6
96 30 0 10 -7 21 -16 24 -29 11 -120 6 -139 -8z m125 -16 c11 -7 -5 -10 -52
-10 -39 0 -68 4 -68 10 0 13 100 13 120 0z"/>
<path d="M2919 988 c-70 -77 -88 -92 -124 -109 -22 -10 -48 -19 -58 -19 -10 0
-16 -4 -13 -9 8 -12 70 3 104 25 44 29 137 134 117 134 -3 0 -14 -10 -26 -22z"/>
<path d="M1805 930 c3 -5 8 -10 11 -10 2 0 4 5 4 10 0 6 -5 10 -11 10 -5 0 -7
-4 -4 -10z"/>
<path d="M2467 894 c-4 -4 -7 -14 -7 -23 0 -11 3 -12 11 -4 6 6 10 16 7 23 -2
6 -7 8 -11 4z"/>
<path d="M2863 864 c-7 -20 13 -34 50 -34 31 0 48 27 26 41 -23 15 -69 10 -76
-7z m62 -3 c3 -5 1 -12 -5 -16 -14 -9 -52 4 -45 16 8 12 42 12 50 0z"/>
<path d="M1836 813 c-6 -14 -5 -15 5 -6 7 7 10 15 7 18 -3 3 -9 -2 -12 -12z"/>
<path d="M2407 803 c-16 -15 -5 -34 29 -50 34 -17 36 -17 50 2 8 10 14 24 14
31 0 19 -77 33 -93 17z m73 -28 c0 -17 -4 -18 -37 -9 -33 9 -28 24 7 24 20 0
30 -5 30 -15z"/>
<path d="M1806 791 c-3 -5 -23 -12 -43 -16 -21 -4 -32 -10 -26 -12 17 -6 83
16 83 28 0 11 -7 12 -14 0z"/>
<path d="M2667 719 c-25 -41 -29 -65 -11 -80 14 -11 18 -10 31 6 23 32 27 65
10 82 -13 14 -17 13 -30 -8z m19 -44 c-4 -14 -11 -25 -16 -25 -13 0 -13 12 1
47 13 32 24 15 15 -22z"/>
<path d="M2395 712 c-32 -11 -115 -63 -115 -73 0 -5 24 6 53 23 28 17 66 37
82 44 31 13 16 17 -20 6z"/>
<path d="M2342 630 c-88 -59 -170 -144 -182 -190 -13 -49 1 -87 35 -96 18 -4
24 -11 20 -22 -16 -43 117 25 218 111 62 54 93 102 103 164 8 55 -11 73 -81
73 -45 0 -61 -6 -113 -40z m114 -4 c13 -53 -16 -99 -118 -193 -25 -23 -15 -27
19 -10 69 37 127 126 121 189 -3 30 0 38 12 36 35 -7 19 -104 -27 -158 -33
-40 -137 -108 -185 -121 -45 -12 -85 -3 -98 21 -11 21 18 81 62 125 26 27 29
28 26 9 -2 -11 4 -29 12 -40 10 -13 6 -12 -11 4 -23 20 -27 21 -39 7 -10 -12
-10 -15 4 -15 9 0 16 -4 16 -10 0 -5 -6 -10 -13 -10 -21 0 -49 -36 -45 -57 5
-28 41 -27 72 2 29 27 46 34 27 11 -9 -10 -8 -15 4 -20 9 -3 15 0 15 8 0 7 11
25 24 39 l23 25 -38 18 c-37 16 -52 34 -29 34 6 0 10 -4 10 -10 0 -20 18 -9
22 13 4 20 1 23 -19 19 -51 -10 -6 36 82 82 59 32 63 32 71 2z m-145 -171 c-1
-3 -4 -5 -8 -6 -5 0 -15 -6 -23 -12 -8 -7 -5 0 5 15 17 22 29 24 26 3z m-61
-24 c0 -12 -29 -35 -36 -28 -11 10 5 37 21 37 8 0 15 -4 15 -9z"/>
<path d="M2430 620 c0 -5 5 -10 10 -10 6 0 10 5 10 10 0 6 -4 10 -10 10 -5 0
-10 -4 -10 -10z"/>
<path d="M2359 571 c-33 -33 -39 -78 -12 -88 12 -5 28 6 55 37 21 24 36 45 33
48 -3 3 0 11 6 19 9 10 5 13 -21 13 -22 0 -41 -9 -61 -29z m61 2 c0 -11 -51
-73 -61 -73 -16 0 -10 26 12 54 18 24 49 36 49 19z"/>
<path d="M3705 660 c-3 -5 -1 -10 4 -10 6 0 11 5 11 10 0 6 -2 10 -4 10 -3 0
-8 -4 -11 -10z"/>
<path d="M2568 620 c-4 -19 -10 -46 -14 -60 l-6 -25 16 23 c11 14 16 36 14 60
l-3 37 -7 -35z"/>
<path d="M1903 615 c-31 -22 -19 -43 31 -55 63 -17 93 -30 112 -51 22 -24 31
-24 44 0 8 16 5 26 -16 51 -48 56 -131 83 -171 55z m80 -14 c25 -1 108 -80 85
-81 -10 0 -18 4 -18 9 0 11 -93 51 -119 51 -20 0 -27 10 -16 22 3 2 15 4 27 2
13 -1 31 -3 41 -3z"/>
<path d="M2219 580 c-13 -10 -19 -19 -13 -20 6 0 19 9 29 20 23 26 14 26 -16
0z"/>
<path d="M2770 590 c-34 -7 -34 -7 -5 -8 17 0 41 4 55 8 33 11 0 11 -50 0z"/>
<path d="M3250 533 c0 -4 5 -15 10 -23 8 -13 10 -13 10 2 0 9 -4 20 -10 23 -5
3 -10 3 -10 -2z"/>
<path d="M1425 510 c-4 -6 12 -10 39 -10 25 0 46 5 46 10 0 6 -18 10 -39 10
-22 0 -43 -4 -46 -10z"/>
<path d="M2560 505 c-7 -9 -8 -15 -2 -15 5 0 12 7 16 15 3 8 4 15 2 15 -2 0
-9 -7 -16 -15z"/>
<path d="M1405 479 c-4 -6 -5 -12 -2 -15 2 -3 7 2 10 11 7 17 1 20 -8 4z"/>
<path d="M1518 470 c13 -6 31 -6 45 0 18 7 14 9 -23 9 -37 0 -41 -2 -22 -9z"/>
<path d="M1385 439 c-4 -6 -5 -12 -2 -15 2 -3 7 2 10 11 7 17 1 20 -8 4z"/>
<path d="M1448 433 c12 -2 30 -2 40 0 9 3 -1 5 -23 4 -22 0 -30 -2 -17 -4z"/>
<path d="M3118 413 c6 -2 18 -2 25 0 6 3 1 5 -13 5 -14 0 -19 -2 -12 -5z"/>
<path d="M1370 396 c0 -10 7 -15 20 -13 21 3 40 17 22 17 -5 0 -17 3 -26 6
-11 4 -16 1 -16 -10z"/>
<path d="M1371 354 c0 -11 3 -14 6 -6 3 7 2 16 -1 19 -3 4 -6 -2 -5 -13z"/>
<path d="M3310 276 c0 -2 7 -7 16 -10 8 -3 12 -2 9 4 -6 10 -25 14 -25 6z"/>
<path d="M1405 250 c4 -14 14 -32 22 -40 12 -12 11 -7 -2 20 -22 45 -29 52
-20 20z"/>
<path d="M1778 249 c-26 -15 -24 -65 3 -72 30 -8 48 2 55 29 12 48 -16 68 -58
43z m45 -23 c8 -19 -15 -37 -33 -26 -11 7 -11 11 -1 24 17 20 27 20 34 2z"/>
<path d="M2132 208 c7 -15 15 -23 17 -17 2 6 -4 18 -13 27 -15 15 -15 15 -4
-10z"/>
<path d="M2105 198 c-9 -24 -2 -81 11 -85 17 -6 22 38 8 72 -10 24 -14 27 -19
13z"/>
<path d="M3010 35 c-39 -9 -46 -13 -25 -13 17 0 48 5 70 13 51 16 27 17 -45 0z"/>
<path d="M2338 23 c-27 -7 -21 -23 7 -23 14 0 25 4 25 9 0 13 -12 18 -32 14z"/>
</g>
</svg>
